<?xml version="1.0" encoding="UTF-8" standalone="no"?><!DOCTYPE svg PUBLIC "-//W3C//DTD SVG 1.1//EN" "http://www.w3.org/Graphics/SVG/1.1/DTD/svg11.dtd"><svg width="100%" height="100%" viewBox="0 0 1058 432" version="1.1" xmlns="http://www.w3.org/2000/svg" xmlns:xlink="http://www.w3.org/1999/xlink" xml:space="preserve" xmlns:serif="http://www.serif.com/" style="fill-rule:evenodd;clip-rule:evenodd;stroke-linejoin:round;stroke-miterlimit:1.41421;"><g><path d="M288.486,148.602l0,-12.727l-42.117,0l0,14.203l24.398,0l-0.07,2.11c-0.281,13.992 -10.828,23.414 -26.297,23.414c-18.07,0 -29.391,-14.203 -29.391,-37.266c0,-22.781 11.11,-36.914 28.828,-36.914c13.008,0 22.079,6.398 25.735,17.93l18.07,0c-3.234,-20.743 -20.391,-34.102 -43.805,-34.102c-28.898,0 -47.39,20.742 -47.39,53.227c0,32.906 18.281,53.297 47.672,53.297c27.07,0 44.367,-16.805 44.367,-43.172Z" style="fill:#00d1b2;fill-rule:nonzero;"/><path d="M375.181,173.563l-47.531,0l0,-28.407l44.93,0l0,-14.765l-44.93,0l0,-26.93l47.531,0l0,-15.68l-65.672,0l0,101.461l65.672,0l0,-15.679Z" style="fill:#00d1b2;fill-rule:nonzero;"/><path d="M441.416,85.25c-29.461,0 -48.024,20.461 -48.024,53.227c0,32.765 18.281,53.297 48.024,53.297c29.601,0 47.953,-20.602 47.953,-53.297c0,-32.766 -18.422,-53.227 -47.953,-53.227Zm0,16.102c18,0 29.46,14.414 29.46,37.125c0,22.64 -11.39,37.195 -29.46,37.195c-18.282,0 -29.461,-14.555 -29.461,-37.195c0,-22.711 11.461,-37.125 29.461,-37.125Z" style="fill:#00d1b2;fill-rule:nonzero;"/><path d="M507.228,117.945l17.016,0c0,-10.546 7.031,-17.789 18.07,-17.789c10.617,0 16.945,6.961 16.945,16.032c0,7.593 -3.093,12.445 -15.89,25.242l-35.157,35.226l0,12.586l70.454,0l0,-15.398l-45.844,0l0,-1.195l21.797,-21.235c17.437,-16.875 22.57,-25.172 22.57,-36.984c0,-16.875 -13.711,-29.18 -33.891,-29.18c-21.164,0 -36.07,13.43 -36.07,32.695Z" style="fill:#00d1b2;fill-rule:nonzero;"/><path d="M636.111,191.774c24.258,0 38.672,-19.688 38.672,-53.227c0,-33.68 -14.625,-53.297 -38.672,-53.297c-24.117,0 -38.742,19.617 -38.742,53.156c0,33.68 14.414,53.368 38.742,53.368Zm0,-15.047c-12.867,0 -20.391,-13.149 -20.391,-38.321c0,-24.961 7.664,-38.039 20.391,-38.039c12.726,0 20.32,13.008 20.32,38.039c0,25.172 -7.453,38.321 -20.32,38.321Z" style="fill:#00d1b2;fill-rule:nonzero;"/><path d="M693.556,117.945l17.016,0c0,-10.546 7.031,-17.789 18.07,-17.789c10.617,0 16.945,6.961 16.945,16.032c0,7.593 -3.093,12.445 -15.89,25.242l-35.156,35.226l0,12.586l70.453,0l0,-15.398l-45.844,0l0,-1.195l21.797,-21.235c17.437,-16.875 22.57,-25.172 22.57,-36.984c0,-16.875 -13.711,-29.18 -33.891,-29.18c-21.164,0 -36.07,13.43 -36.07,32.695Z" style="fill:#00d1b2;fill-rule:nonzero;"/><path d="M822.439,191.774c24.258,0 38.672,-19.688 38.672,-53.227c0,-33.68 -14.625,-53.297 -38.672,-53.297c-24.117,0 -38.742,19.617 -38.742,53.156c0,33.68 14.414,53.368 38.742,53.368Zm0,-15.047c-12.867,0 -20.391,-13.149 -20.391,-38.321c0,-24.961 7.664,-38.039 20.391,-38.039c12.727,0 20.32,13.008 20.32,38.039c0,25.172 -7.453,38.321 -20.32,38.321Z" style="fill:#00d1b2;fill-rule:nonzero;"/></g><g><path d="M107.959,331.609l0,-101.461l-14.696,0l-34.734,84.657l-1.125,0l-34.735,-84.657l-14.695,0l0,101.461l11.813,0l0,-77.484l0.843,0l31.993,77.484l10.687,0l31.992,-77.484l0.844,0l0,77.484l11.813,0Z" style="fill:#209cee;fill-rule:nonzero;"/><path d="M128.982,305.102c1.336,17.507 16.172,28.898 37.687,28.898c23.204,0 37.899,-11.883 37.899,-30.516c0,-14.906 -8.438,-23.062 -29.461,-28.336l-10.617,-2.812c-13.992,-3.586 -19.547,-8.156 -19.547,-16.102c0,-10.265 8.93,-17.015 22.43,-17.015c12.656,0 21.234,6.187 22.992,16.593l12.726,0c-1.054,-16.382 -15.679,-28.054 -35.297,-28.054c-21.445,0 -35.859,11.672 -35.859,28.898c0,14.414 7.945,22.711 26.297,27.352l13.008,3.375c13.992,3.515 20.32,9 20.32,17.648c0,10.055 -10.055,17.438 -23.695,17.438c-14.414,0 -24.539,-6.75 -26.086,-17.367l-12.797,0Z" style="fill:#209cee;fill-rule:nonzero;"/><path d="M286.763,279.016c-2.109,-13.5 -13.359,-24.539 -31.781,-24.539c-21.234,0 -34.734,15.328 -34.734,38.953c0,24.117 13.57,39.515 34.804,39.515c18.211,0 29.532,-10.265 31.711,-24.187l-12.234,0c-2.25,8.578 -9.352,13.289 -19.547,13.289c-13.5,0 -22.219,-11.11 -22.219,-28.617c0,-17.157 8.578,-28.055 22.219,-28.055c10.898,0 17.578,6.117 19.547,13.641l12.234,0Z" style="fill:#209cee;fill-rule:nonzero;"/><path d="M431.959,292.375l0,-12.375l-41.133,0l0,11.109l28.547,0l0,2.461c0,17.157 -12.305,28.758 -30.446,28.758c-20.39,0 -33.047,-15.89 -33.047,-41.484c0,-25.242 12.868,-41.414 32.977,-41.414c15.047,0 25.242,7.242 29.602,20.953l12.867,0c-3.657,-20.11 -19.969,-32.625 -42.469,-32.625c-27.773,0 -45.984,21.023 -45.984,53.086c0,32.484 17.929,53.156 45.984,53.156c25.945,0 43.102,-16.594 43.102,-41.625Z" style="fill:#209cee;fill-rule:nonzero;"/><path d="M483.005,265.164c12.024,0 20.039,8.859 20.321,22.289l-41.766,0c0.914,-13.43 9.352,-22.289 21.445,-22.289Zm19.969,46.828c-3.164,6.68 -9.773,10.266 -19.547,10.266c-12.867,0 -21.234,-9.492 -21.867,-24.469l0,-0.562l54.492,0l0,-4.641c0,-23.555 -12.445,-38.109 -32.906,-38.109c-20.812,0 -34.172,15.468 -34.172,39.304c0,23.977 13.149,39.164 34.172,39.164c16.594,0 28.406,-8.015 31.922,-20.953l-12.094,0Z" style="fill:#209cee;fill-rule:nonzero;"/><path d="M566.185,332.945c21.586,0 34.945,-14.906 34.945,-39.234c0,-24.399 -13.359,-39.234 -34.945,-39.234c-21.586,0 -34.945,14.835 -34.945,39.234c0,24.328 13.359,39.234 34.945,39.234Zm0,-10.898c-14.344,0 -22.43,-10.406 -22.43,-28.336c0,-18 8.086,-28.336 22.43,-28.336c14.344,0 22.43,10.336 22.43,28.336c0,17.93 -8.086,28.336 -22.43,28.336Z" style="fill:#209cee;fill-rule:nonzero;"/><path d="M620.115,331.609l12.094,0l0,-46.968c0,-10.688 7.664,-19.266 17.578,-19.266c9.562,0 15.82,5.766 15.82,14.766l0,51.468l12.094,0l0,-48.726c0,-9.633 7.031,-17.508 17.578,-17.508c10.687,0 15.961,5.484 15.961,16.664l0,49.57l12.094,0l0,-52.382c0,-15.891 -8.649,-24.75 -24.118,-24.75c-10.476,0 -19.125,5.273 -23.203,13.289l-1.125,0c-3.515,-7.875 -10.687,-13.289 -20.953,-13.289c-10.125,0 -17.719,4.851 -21.164,13.289l-1.125,0l0,-11.953l-11.531,0l0,75.796Z" style="fill:#209cee;fill-rule:nonzero;"/><path d="M768.755,322.328c-8.789,0 -15.328,-4.5 -15.328,-12.234c0,-7.594 5.063,-11.602 16.594,-12.375l20.391,-1.336l0,6.961c0,10.828 -9.211,18.984 -21.657,18.984Zm-2.25,10.617c10.125,0 18.422,-4.429 23.344,-12.515l1.125,0l0,11.179l11.531,0l0,-51.89c0,-15.75 -10.336,-25.242 -28.828,-25.242c-16.172,0 -28.125,8.015 -29.742,20.179l12.234,0c1.688,-5.976 8.016,-9.422 17.086,-9.422c11.321,0 17.157,5.133 17.157,14.485l0,6.89l-21.868,1.336c-17.648,1.055 -27.632,8.86 -27.632,22.43c0,13.852 10.898,22.57 25.593,22.57Z" style="fill:#209cee;fill-rule:nonzero;"/><path d="M829.927,236.195l0,19.618l-12.234,0l0,10.125l12.234,0l0,45.984c0,14.484 6.258,20.25 21.867,20.25c2.391,0 4.711,-0.281 7.102,-0.703l0,-10.196c-2.25,0.211 -3.445,0.282 -5.625,0.282c-7.875,0 -11.25,-3.797 -11.25,-12.727l0,-42.89l16.875,0l0,-10.125l-16.875,0l0,-19.618l-12.094,0Z" style="fill:#209cee;fill-rule:nonzero;"/><path d="M877.459,331.609l12.093,0l0,-75.796l-12.093,0l0,75.796Zm6.046,-90.421c4.641,0 8.438,-3.797 8.438,-8.438c0,-4.641 -3.797,-8.438 -8.438,-8.438c-4.64,0 -8.437,3.797 -8.437,8.438c0,4.641 3.797,8.438 8.437,8.438Z" style="fill:#209cee;fill-rule:nonzero;"/><path d="M975.334,279.016c-2.11,-13.5 -13.36,-24.539 -31.782,-24.539c-21.234,0 -34.734,15.328 -34.734,38.953c0,24.117 13.57,39.515 34.805,39.515c18.211,0 29.531,-10.265 31.711,-24.187l-12.235,0c-2.25,8.578 -9.351,13.289 -19.547,13.289c-13.5,0 -22.218,-11.11 -22.218,-28.617c0,-17.157 8.578,-28.055 22.218,-28.055c10.899,0 17.578,6.117 19.547,13.641l12.235,0Z" style="fill:#209cee;fill-rule:nonzero;"/><path d="M991.435,276.555c0,10.968 6.469,17.086 20.672,20.531l13.008,3.164c8.086,1.969 12.023,5.484 12.023,10.688c0,6.96 -7.312,11.812 -17.508,11.812c-9.703,0 -15.75,-4.078 -17.789,-10.477l-12.445,0c1.336,12.586 12.938,20.672 29.813,20.672c17.226,0 30.375,-9.351 30.375,-22.922c0,-10.898 -6.891,-17.086 -21.165,-20.531l-11.671,-2.812c-8.93,-2.18 -13.149,-5.414 -13.149,-10.618c0,-6.75 7.031,-11.32 16.031,-11.32c9.141,0 15.047,4.008 16.664,10.055l11.954,0c-1.618,-12.445 -12.657,-20.32 -28.547,-20.32c-16.102,0 -28.266,9.492 -28.266,22.078Z" style="fill:#209cee;fill-rule:nonzero;"/></g></svg>